HIERARCHY
ROOT hips
{
  OFFSET 0 10.074487846421558 1.314567655973056
  CHANNELS 6 Xposition Yposition Zposition Yrotation Xrotation Zrotation
  JOINT spine
  {
    OFFSET -7.042773748992335e-31 0.5690686926897363 0
    CHANNELS 3 Yrotation Xrotation Zrotation
    JOINT chest
    {
      OFFSET 0 1.2435964857087873 0
      CHANNELS 3 Yrotation Xrotation Zrotation
      JOINT upperChest
      {
        OFFSET 0 1.194994586872362 0
        CHANNELS 3 Yrotation Xrotation Zrotation
        JOINT neck
        {
          OFFSET 0 1.515103653293861 0
          CHANNELS 3 Yrotation Xrotation Zrotation
          JOINT head
          {
            OFFSET 0 0.8111851616465653 0
            CHANNELS 3 Yrotation Xrotation Zrotation
            JOINT leftEye
            {
              OFFSET 0.27141371691966987 0.7490044407698551 0.18219031050045686
              CHANNELS 3 Yrotation Xrotation Zrotation
              End Site
              {
                OFFSET 0.27141371691966987 0.7490044407698551 0.18219031050045686
              }
            }
            JOINT rightEye
            {
              OFFSET -0.2714136877644943 0.7490044019380786 0.18219040411850668
              CHANNELS 3 Yrotation Xrotation Zrotation
              End Site
              {
                OFFSET -0.2714136877644943 0.7490044019380786 0.18219040411850668
              }
            }
          }
        }
        JOINT leftShoulder
        {
          OFFSET 0.4137993136083964 1.1593397335613034 0
          CHANNELS 3 Yrotation Xrotation Zrotation
          JOINT leftUpperArm
          {
            OFFSET 1.0096991868951026 0 0
            CHANNELS 3 Yrotation Xrotation Zrotation
            JOINT leftLowerArm
            {
              OFFSET 2.418380967671622 0 0
              CHANNELS 3 Yrotation Xrotation Zrotation
              JOINT leftHand
              {
                OFFSET 2.361538296260114 0 0
                CHANNELS 3 Yrotation Xrotation Zrotation
                JOINT leftIndexProximal
                {
                  OFFSET 0.7243699271447109 0.08118285989887508 0.2022042461579805
                  CHANNELS 3 Yrotation Xrotation Zrotation
                  JOINT leftIndexIntermediate
                  {
                    OFFSET 0.36553107045252053 -0.010567764853200323 -0.014102670024158437
                    CHANNELS 3 Yrotation Xrotation Zrotation
                    JOINT leftIndexDistal
                    {
                      OFFSET 0.22505120770060527 -0.007821041598631284 -0.007511611613336286
                      CHANNELS 3 Yrotation Xrotation Zrotation
                      End Site
                      {
                        OFFSET 0.22505120770060527 -0.007821041598631284 -0.007511611613336286
                      }
                    }
                  }
                }
                JOINT leftLittleProximal
                {
                  OFFSET 0.6721063881632002 0.08118279568569564 -0.3209324945517917
                  CHANNELS 3 Yrotation Xrotation Zrotation
                  JOINT leftLittleIntermediate
                  {
                    OFFSET 0.34587329423120616 5.3042709780015684e-8 -5.929537746918179e-8
                    CHANNELS 3 Yrotation Xrotation Zrotation
                    JOINT leftLittleDistal
                    {
                      OFFSET 0.1992782500022232 0.0030983716482184676 0.0038310952896712935
                      CHANNELS 3 Yrotation Xrotation Zrotation
                      End Site
                      {
                        OFFSET 0.1992782500022232 0.0030983716482184676 0.0038310952896712935
                      }
                    }
                  }
                }
                JOINT leftMiddleProximal
                {
                  OFFSET 0.7301229696860206 0.08118412848995638 0.022516891543707507
                  CHANNELS 3 Yrotation Xrotation Zrotation
                  JOINT leftMiddleIntermediate
                  {
                    OFFSET 0.4076277831942017 -0.000001240188283180288 -1.6203245635504349e-7
                    CHANNELS 3 Yrotation Xrotation Zrotation
                    JOINT leftMiddleDistal
                    {
                      OFFSET 0.2514739255593972 0.0000013850839168938478 -1.8644847207816007e-8
                      CHANNELS 3 Yrotation Xrotation Zrotation
                      End Site
                      {
                        OFFSET 0.2514739255593972 0.0000013850839168938478 -1.8644847207816007e-8
                      }
                    }
                  }
                }
                JOINT leftRingProximal
                {
                  OFFSET 0.7218060861525873 0.08118280646416753 -0.1494689818508163
                  CHANNELS 3 Yrotation Xrotation Zrotation
                  JOINT leftRingIntermediate
                  {
                    OFFSET 0.3781267508900358 0.000001373626195677602 -1.4143108284514483e-7
                    CHANNELS 3 Yrotation Xrotation Zrotation
                    JOINT leftRingDistal
                    {
                      OFFSET 0.21814333268795483 -0.0027137626495670197 -0.004991775417842292
                      CHANNELS 3 Yrotation Xrotation Zrotation
                      End Site
                      {
                        OFFSET 0.21814333268795483 -0.0027137626495670197 -0.004991775417842292
                      }
                    }
                  }
                }
                JOINT leftThumbProximal
                {
                  OFFSET 0.10743676110519984 -0.16423092885053192 -0.07708859146227388
                  CHANNELS 3 Yrotation Xrotation Zrotation
                  JOINT leftThumbIntermediate
                  {
                    OFFSET 0.40350402100066307 -0.01735099334274981 0.315629965828783
                    CHANNELS 3 Yrotation Xrotation Zrotation
                    JOINT leftThumbDistal
                    {
                      OFFSET 0.2320014489535681 -0.01842351809041043 0.21271298411519196
                      CHANNELS 3 Yrotation Xrotation Zrotation
                      End Site
                      {
                        OFFSET 0.2320014489535681 -0.01842351809041043 0.21271298411519196
                      }
                    }
                  }
                }
              }
            }
          }
        }
        JOINT rightShoulder
        {
          OFFSET -0.41379931360839656 1.1593397335613034 0
          CHANNELS 3 Yrotation Xrotation Zrotation
          JOINT rightUpperArm
          {
            OFFSET -1.0096991868951024 0 0
            CHANNELS 3 Yrotation Xrotation Zrotation
            JOINT rightLowerArm
            {
              OFFSET -2.4183809676716232 0 0
              CHANNELS 3 Yrotation Xrotation Zrotation
              JOINT rightHand
              {
                OFFSET -2.3615382962601132 0 0
                CHANNELS 3 Yrotation Xrotation Zrotation
                JOINT rightIndexProximal
                {
                  OFFSET -0.7243699271447109 0.08118285989887508 0.2022042461579805
                  CHANNELS 3 Yrotation Xrotation Zrotation
                  JOINT rightIndexIntermediate
                  {
                    OFFSET -0.36553107045252053 -0.010567764853200323 -0.014102670024158437
                    CHANNELS 3 Yrotation Xrotation Zrotation
                    JOINT rightIndexDistal
                    {
                      OFFSET -0.22505120770060527 -0.007821041598631284 -0.007511611613336286
                      CHANNELS 3 Yrotation Xrotation Zrotation
                      End Site
                      {
                        OFFSET -0.22505120770060527 -0.007821041598631284 -0.007511611613336286
                      }
                    }
                  }
                }
                JOINT rightLittleProximal
                {
                  OFFSET -0.6721063881632002 0.08118279568569564 -0.3209324945517917
                  CHANNELS 3 Yrotation Xrotation Zrotation
                  JOINT rightLittleIntermediate
                  {
                    OFFSET -0.34587329423120616 5.3042709780015684e-8 -5.929537746918179e-8
                    CHANNELS 3 Yrotation Xrotation Zrotation
                    JOINT rightLittleDistal
                    {
                      OFFSET -0.1992782500022232 0.0030983716482184676 0.0038310952896712935
                      CHANNELS 3 Yrotation Xrotation Zrotation
                      End Site
                      {
                        OFFSET -0.1992782500022232 0.0030983716482184676 0.0038310952896712935
                      }
                    }
                  }
                }
                JOINT rightMiddleProximal
                {
                  OFFSET -0.7301229696860206 0.08118412848995638 0.022516891543707507
                  CHANNELS 3 Yrotation Xrotation Zrotation
                  JOINT rightMiddleIntermediate
                  {
                    OFFSET -0.4076277831942017 -0.000001240188283180288 -1.6203245635504349e-7
                    CHANNELS 3 Yrotation Xrotation Zrotation
                    JOINT rightMiddleDistal
                    {
                      OFFSET -0.2514739255593972 0.0000013850839168938478 -1.8644847207816007e-8
                      CHANNELS 3 Yrotation Xrotation Zrotation
                      End Site
                      {
                        OFFSET -0.2514739255593972 0.0000013850839168938478 -1.8644847207816007e-8
                      }
                    }
                  }
                }
                JOINT rightRingProximal
                {
                  OFFSET -0.7218060861525873 0.08118280646416753 -0.1494689818508163
                  CHANNELS 3 Yrotation Xrotation Zrotation
                  JOINT rightRingIntermediate
                  {
                    OFFSET -0.3781267508900358 0.000001373626195677602 -1.4143108284514483e-7
                    CHANNELS 3 Yrotation Xrotation Zrotation
                    JOINT rightRingDistal
                    {
                      OFFSET -0.21814333268795483 -0.0027137626495670197 -0.004991775417842292
                      CHANNELS 3 Yrotation Xrotation Zrotation
                      End Site
                      {
                        OFFSET -0.21814333268795483 -0.0027137626495670197 -0.004991775417842292
                      }
                    }
                  }
                }
                JOINT rightThumbProximal
                {
                  OFFSET -0.10743676110519984 -0.16423092885053192 -0.07708859146227388
                  CHANNELS 3 Yrotation Xrotation Zrotation
                  JOINT rightThumbIntermediate
                  {
                    OFFSET -0.40350402100066307 -0.01735099334274981 0.315629965828783
                    CHANNELS 3 Yrotation Xrotation Zrotation
                    JOINT rightThumbDistal
                    {
                      OFFSET -0.2320014489535681 -0.01842351809041043 0.21271298411519196
                      CHANNELS 3 Yrotation Xrotation Zrotation
                      End Site
                      {
                        OFFSET -0.2320014489535681 -0.01842351809041043 0.21271298411519196
                      }
                    }
                  }
                }
              }
            }
          }
        }
      }
    }
  }
  JOINT leftUpperLeg
  {
    OFFSET 0.8487163290887698 -0.43932186100277326 0
    CHANNELS 3 Yrotation Xrotation Zrotation
    JOINT leftLowerLeg
    {
      OFFSET 0 -3.882816707004296 0
      CHANNELS 3 Yrotation Xrotation Zrotation
      JOINT leftFoot
      {
        OFFSET 0 -4.570431027442807 0.004629272230691511
        CHANNELS 3 Yrotation Xrotation Zrotation
        JOINT leftToes
        {
          OFFSET 0 -0.698875637876343 1.214565366696912
          CHANNELS 3 Yrotation Xrotation Zrotation
          End Site
          {
            OFFSET 0 -0.698875637876343 1.214565366696912
          }
        }
      }
    }
  }
  JOINT rightUpperLeg
  {
    OFFSET -0.8487163290887698 -0.43932186100277326 0
    CHANNELS 3 Yrotation Xrotation Zrotation
    JOINT rightLowerLeg
    {
      OFFSET 0 -3.882816707004296 0
      CHANNELS 3 Yrotation Xrotation Zrotation
      JOINT rightFoot
      {
        OFFSET 0 -4.570431027442807 0.004629272230691511
        CHANNELS 3 Yrotation Xrotation Zrotation
        JOINT rightToes
        {
          OFFSET 0 -0.698875637876343 1.214565366696912
          CHANNELS 3 Yrotation Xrotation Zrotation
          End Site
          {
            OFFSET 0 -0.698875637876343 1.214565366696912
          }
        }
      }
    }
  }
}
MOTION
Frames: 4
Frame Time: 0.03333333333333333
0.013935391791164875 -0.0847341232770269 0.008443405851721764 -5.277874851684873 -3.7356544317549667 -3.3484422385423054 1.5758023909723458 3.291926846401035 2.799765453628808 0.7447677584553029 2.2591502421612626 3.120832609030231 0 0 0 -0.07130684563443797 5.62261465232946 0.45791140554283377 1.3856698174658437 -7.548814373738223 -0.28144902563224317 0 0 0 0 0 0 -17.60529483110706 1.0147347435163627 -12.410474638911806 -20.717984285249667 3.22671172122027 -70.89211338857234 -1.4531572162638946 0.0002300742020294246 0.018791123175840408 -1.720652911212727 -33.22066009398968 -5.230292839783446 -1.0101282330329298 -0.4140817419879535 -7.54785362233682 1.5345003984058598 0.2350980120929857 -17.421472048532586 0.7175020160073627 0.05046240127225159 -8.0482019076973 5.197761194882597 0.8861425553619754 -27.11201522005083 1.5344091985340724 0.23507093123219633 -17.420376799788666 1.4573121534587037 0.21153516107839848 -16.519509341427746 2.4613948483769312 -0.10431368149914537 -15.735026784310088 1.5343089304965982 0.23502672139356243 -17.41921839306809 1.620094782430304 0.26278265788289096 -18.426944165995295 3.3775079059115662 0.0892125118714454 -21.171903356340632 1.8304309514337351 0.3379788233858359 -20.923342111230404 1.5737307540821366 0.24758184103717495 -17.881533658089293 2.2210364709010295 -0.667573621221526 4.78328175551308 26.118955234363177 10.718374227571854 21.928801223302866 3.7665102659071525 -13.790959545610733 8.085589822401282 15.533987421725556 1.1488638961471487 14.828607755368914 28.79306416646218 11.311847944289624 64.73044085250397 6.689230439220352 0.005027954718034861 -0.08620374337307522 -0.46456742273753127 -20.179248773330634 6.959249076112217 1.3034081610451742 -0.395851458295552 6.781928850428679 -1.1769445214585066 0.18070177193823553 17.45611649314665 -0.5505240222782822 0.03881647495056904 8.066613015428247 -4.5352642719347624 0.7123203686301636 26.47324860247775 -1.1764657627691362 0.18055248087019674 17.44865186804465 -1.1172120764287417 0.16241810058242834 16.544263519777683 -2.014683870546156 -0.16055698670320728 15.030802372956636 -1.1765282888150186 0.18055638957207865 17.449862632147823 -1.242300374266017 0.20187248826419518 18.459371453098925 -2.8192208685658238 -0.014566599191481957 20.500237776322138 -1.4035810760016314 0.2596677924429303 20.9607104877745 -1.2065130857018134 0.1901148891273333 17.909308014422614 -0.2236038279860625 -1.6665251496496236 -4.207899429293654 -30.668886002124342 11.047843007208145 -22.201054964966428 -3.8595190910389734 -15.534978724427312 -11.622280843907427 15.122697443909939 -10.412350835969207 7.352924273765135 2.13353205760052 12.160725044650889 4.59191085735387 0.4244913392534863 1.2656217149139837 -7.106733964903384 -0.000004939817837044627 -4.9370410399912075 -3.595614530674314e-7 -10.339450522289832 0.6031392011029761 3.5236980458432563 -9.874119317418373 7.3174877472944955 -4.414516805933924 -1.61010716248847 -3.693778071024849 3.3284416559794474 0.000019848458137565235 -2.0086864184907047 5.97542466829912e-7
0.03350580483675003 -0.08869664006169486 0.005804751999676228 -5.584370753255406 -3.7108541769762438 -3.651194641989879 1.7343577039984144 3.8263471546581416 3.341864196018049 0.7794596413186115 2.3737718989968033 3.2142436864941986 0 0 0 -0.06529532758509063 5.400304012254215 0.4289501539870292 1.3891732670695736 -8.349641810817905 -0.3172551575001625 0 0 0 0 0 0 -17.125987867089254 0.9371233521579183 -12.705193725361884 -19.836218735021326 2.3703607116468133 -69.8943836734857 -1.793026748344459 0.0003612586540852605 0.02315674597916852 -3.2281410348332176 -30.83567099746054 -4.331650721265833 -1.1016183136960875 -0.40539941571738186 -7.268612139978692 1.5867075801344717 0.2517824472628019 -18.034020795044928 0.8092345603355398 0.06427414796335622 -9.085323387185587 5.619581416060765 1.098290280177985 -26.88859566383665 1.5687757897340648 0.24598889808041782 -17.823396606244607 1.4930171863625215 0.22226725276984582 -16.936230618739025 2.3506034646712606 -0.13403868938191155 -15.686732246325422 1.5677354322019443 0.24564853274769466 -17.811182642613826 1.5847707645585591 0.25115158250343383 -18.011311944683467 3.4728517924961886 0.126493431936305 -21.1373730797196 1.8406611958198429 0.341904330260659 -21.045788402527428 1.579575041093503 0.24946581703234869 -17.95024171488276 2.066291889380537 -0.5070575044955343 4.793852249677195 25.539688606261272 10.55431076689952 21.132070030112693 3.204546977728861 -13.635733426666906 8.372705513986917 15.472682408078638 1.0696218338811398 15.069531165678217 28.163454319793736 9.84759643058389 63.42908938520222 5.8957691496643525 0.003921719200679638 -0.07602688568461279 0.9812130979720763 -18.529349492042236 6.1168381164249315 1.2908559754139226 -0.40828361584678874 6.976599063152915 -1.1863203114626815 0.18364906682425844 17.599690393085424 -0.5908064834706551 0.04475088372357562 8.66118603529291 -4.942805730677858 0.9109480504524091 26.22855529052842 -1.147419018800119 0.1715449929707701 17.004764407890136 -1.091831705966684 0.15497826180478996 16.157905257038127 -2.1575654589385986 -0.13528669645630395 15.625818275751442 -1.1840714858630859 0.1829244760953656 17.565197239250463 -1.1690155733234737 0.17821152878077953 17.334859492982446 -3.021964186829068 0.05795093665659298 20.744017268370357 -1.3903330530605684 0.2546116139473435 20.753953494689764 -1.1745619315617322 0.1799434437619642 17.41964803371747 0.015357881812355229 -1.496127761621074 -4.480948622803623 -29.96105901781754 10.91613555432185 -21.456552902104175 -3.5786526317169614 -15.214283535150182 -11.786184202401712 15.022616443276354 -10.901641225899622 7.602029719046466 2.467497755145577 13.009102710573682 4.670074478153948 0.4498655719734668 0.816865043204856 -7.046377681270353 -3.053608596696326e-8 -4.937029042648532 4.28428266487953e-7 -10.333182449622862 0.5709271382727608 3.7301887064313553 -9.500876399603383 7.295435861137329 -4.367962650736509 -1.6675307261220704 -3.580648861116298 3.3904485079365316 0.000004589054677785804 -2.0086864184907047 -5.929069370133559e-8
0.07465290278196335 -0.11961094670231986 -0.011020004749298096 -6.184311068741938 -3.5985282344335836 -3.9137279013240014 1.9590923145007817 5.165458964861016 4.133934106184752 0.7912854437044411 2.6422066158472193 3.319323281260579 0 0 0 -0.037630211651481754 4.888394450015033 0.3622830063954927 1.468703368965496 -10.262124190224672 -0.36736347352330107 0 0 0 0 0 0 -16.238512091324157 0.7750994744350833 -13.37485789181495 -18.339194303853688 0.31509091451497956 -67.53766886017215 -2.4032311095750343 0.0006432047379904456 0.03103519297397792 -6.843976047205051 -26.16659804375148 -1.8262979325614923 -1.2841920094522352 -0.38566556839447796 -6.710018642079816 1.690567242241148 0.28681796998660936 -19.259042210190753 0.9918785300655284 0.09688541910487829 -11.159462210336423 6.467407310435866 1.5133829280107332 -26.435281970082634 1.6372738893946723 0.26853952870128905 -18.62944343561362 1.564208031842819 0.24451577819956494 -17.769633033338206 2.128866556534273 -0.1928563449353778 -15.58988820858117 1.634363488072874 0.2675730997179762 -18.595108643577756 1.5138766169663693 0.22866226700022083 -17.180001831863432 3.6636707837380067 0.200753170764644 -21.068062929776094 1.8610908909718893 0.34980988465143087 -21.290685397265786 1.591275543462149 0.25327579191605964 -18.08766181198692 1.6303845195965616 -0.7304568655971101 4.944823484129911 24.467284525290232 10.123670772886976 19.42882406371203 2.061694022284236 -13.332984025621899 8.953909928747043 15.390852795899736 0.8735363818104946 15.851840720736819 28.06527779147038 6.185192340541298 60.512677743752256 3.630403593456953 0.0014905114033757036 -0.04685559760581715 4.336731014682879 -14.197358850823036 4.628275724476572 1.1052383325995003 -0.36074989692475745 6.59865190472392 -1.1668221262283613 0.17754859703005788 17.30114670686237 -0.6508297209007728 0.054350424718396136 9.548957230680823 -5.5954200556933165 1.1742347247697755 24.508527473202694 -1.0475536107586059 0.14243517743217854 15.485917804478914 -0.9979555582143337 0.12904415374791903 14.73558117787229 -2.422030425686357 -0.0611689780211052 15.595128556906735 -1.1369200882175763 0.16835171874367494 16.844582788920356 -1.0080807756327061 0.13173504180570664 14.88866143427867 -3.3490281332721104 0.1865911728257694 19.877603761102755 -1.3226701186765266 0.22969339368969052 19.70102103364588 -1.0393726718348066 0.14017773968511443 15.362077616361924 0.16789795478073852 -1.2209064250649406 -5.414681274344112 -28.552205310013576 10.643737653800542 -19.974100248102584 -3.021948673743912 -14.571887366288895 -12.111733039412284 14.822142378647987 -12.515590568671309 7.714888876056408 3.1385609383199347 15.851025983182721 4.911418799560528 0.5217040123626524 -0.5672509277813482 -6.912662998579879 0.0000017815792798417307 -4.9370358982728915 -0.000001739291281907766 -10.267904082093091 -1.276416283189942 3.8232930153806373 -8.824062073974982 10.337350900680688 -4.753318401185468 -2.07109304876205 -4.786908543309757 3.804857030192267 -1.891326679062935e-8 -2.008683001296341 8.542271412279493e-7
0.1293354332447052 -0.217255752610523 -0.05268255993723869 -6.548428768450815 -3.1962988584621552 -3.419678908011497 1.85514673119976 7.115858896631584 4.395866279145431 0.5973783462433778 2.956619802641638 3.215133214606521 0 0 0 0.02972758360915967 4.228706177020765 0.22180717815287732 1.778930100328655 -13.066800871994445 -0.5961238713883035 0 0 0 0 0 0 -15.77007885199215 0.6372519651913481 -13.829401555911176 -17.414703761920798 -1.8096311960345708 -64.92919624219113 -2.978847377356097 0.0010003379832817176 0.03846038172772248 -10.127986364191866 -22.086422792507133 0.6524216731354734 -1.4661912080852773 -0.36277596885342106 -6.151312306876131 1.7936532787713608 0.3240660827876512 -20.48399013871278 1.1732261736078022 0.13609270105925833 -13.233523441421482 7.320788923410582 1.9160386143921404 -25.973565310431244 1.705456249674909 0.2920609808078625 -19.435477332962623 1.635040313562629 0.26777592653323157 -18.603018302560834 1.906909200266038 -0.25083731074484533 -15.492781067396598 1.700689983026829 0.290380172271707 -19.37900004063195 1.4426610267502735 0.20722262821331333 -16.34868208836828 3.8546302280895235 0.27464050363877907 -20.998517106853566 1.8814942869544915 0.3578148322279743 -21.535569043482827 1.6029549297709615 0.25709507948228083 -18.225085396605564 1.0333026084059842 -1.5802142184659413 5.26209098827502 23.505825259977872 9.580970533354439 17.59977216104916 0.8978794340617812 -13.038078935215825 9.542744171586698 15.23886600885143 0.7224976146780132 16.343730112735226 29.186777551460207 1.5879940024264956 57.623720018897345 1.052666686278148 0.00013612835591859742 -0.01359900476620673 7.261816007627653 -8.763680999602157 3.4925139498156117 0.7169395260615716 -0.25008632960644717 5.475867892990916 -1.1132120402607661 0.1612484927225848 16.483289288160336 -0.6978905623058816 0.06258118048648086 10.24638868648705 -6.057800462076799 1.2506710952809952 21.554225363727834 -0.9119177186562999 0.10746625274236055 13.440242927616477 -0.866756132477659 0.09693349063198763 12.763435989454269 -2.6773030304522587 0.024459918681932542 14.317112599583108 -1.029178500438602 0.13738341038484964 15.207566493446262 -0.8428030978952821 0.0916054022572236 12.40496702092176 -3.602064802875396 0.27539796967152835 17.63151307294681 -1.2197593997370961 0.1944266170616646 18.11270128331225 -0.8330850694269393 0.08948297168316978 12.259649383283774 -0.05209405119455439 -1.0320669789392685 -6.8035603745155635 -27.152481119471975 10.359723406603132 -18.500770661806953 -2.471890007745317 -13.928129031079372 -12.43443109454297 14.501042375117828 -15.953566153595618 6.852339956995145 3.8226469119699704 21.720863284841847 5.424516319327062 0.6780860623051357 -3.2505188016155335 -6.719629921365316 -0.0000024891503498642565 -4.9370358982728915 3.834417529573724e-8 -10.237073994020179 -6.347786238283684 3.1749978335679385 -8.628655629068291 18.530008624318867 -5.956241058753748 -2.764765774216556 -8.332281965879552 4.7946177762065645 0.000006019536500439987 -2.008683001296341 0.000004192143001862299
